<svg version="1.1" id="Layer_1" xmlns="http://www.w3.org/2000/svg" xmlns:xlink="http://www.w3.org/1999/xlink" x="0px" y="0px"
	 width="100%" viewBox="0 0 171 171" enable-background="new 0 0 171 171" xml:space="preserve">
<path fill="#FA9694" opacity="1.000000" stroke="none" 
	d="
M94.000000,1.000000 
	C107.020897,1.000000 120.041786,1.000000 133.465988,1.342996 
	C145.647812,10.473170 150.743362,22.504162 150.531433,37.091114 
	C147.120087,37.251827 144.091446,37.560181 141.167877,37.139065 
	C125.188667,34.837379 109.220551,32.448460 93.279747,29.895142 
	C86.192688,28.759970 79.229675,26.080490 71.631577,28.950237 
	C68.777161,31.254772 65.178360,33.076050 63.953987,35.919678 
	C57.083874,51.875584 58.227245,62.729313 69.747139,74.516479 
	C69.970940,74.745468 70.888023,74.296921 71.475998,74.114197 
	C71.470360,74.063904 71.373100,74.091919 71.049789,74.430359 
	C72.407501,76.478027 73.992943,78.304680 75.840836,79.808907 
	C76.270012,80.158257 77.593498,79.408958 78.558624,79.361130 
	C79.064240,79.636528 79.516701,79.715988 79.948471,80.352097 
	C99.063271,91.292679 119.147644,94.968239 140.726120,89.697342 
	C141.061661,90.053627 141.199203,90.192986 141.286301,90.679123 
	C135.653275,99.298218 132.479538,109.782387 121.356758,113.251686 
	C118.840309,106.028587 116.775337,104.829262 110.451210,108.992104 
	C104.201805,113.105759 100.098114,114.278481 93.941666,107.927444 
	C87.755760,101.546013 82.521530,103.776970 80.439217,112.355194 
	C76.799896,111.906998 73.022682,111.672279 69.341644,110.948463 
	C53.685005,107.869804 38.131306,104.442032 24.130695,96.224777 
	C20.542114,94.118561 18.024611,91.234299 18.515234,87.013878 
	C19.604719,77.641975 20.098150,68.034393 22.634720,59.029995 
	C28.889967,36.824913 37.893707,15.990733 57.906200,2.156590 
	C58.107689,2.017306 57.976093,1.396180 58.000000,1.000000 
	C61.692909,1.000000 65.385818,1.000000 69.521057,1.370431 
	C70.302185,4.245617 70.010994,7.078924 71.110382,9.187030 
	C73.430496,13.635906 81.415565,16.611185 85.754601,15.273355 
	C91.023224,13.648911 94.469650,7.682900 94.000000,1.000000 
M121.288315,11.787749 
	C118.825287,16.481430 120.534485,21.051128 125.337669,21.813608 
	C128.408417,22.301073 131.612808,22.298147 134.725586,22.074341 
	C138.090958,21.832373 139.608826,19.556654 139.433533,16.272930 
	C139.189285,11.697206 136.899887,8.440582 132.589432,6.878601 
	C127.782799,5.136819 124.280754,7.113753 121.288315,11.787749 
M46.281971,71.919487 
	C43.305763,71.590797 40.476929,72.351875 40.603157,75.676048 
	C40.671062,77.464287 42.711933,80.282722 44.287464,80.613670 
	C46.042336,80.982300 49.160797,79.582504 50.108356,78.005028 
	C51.673367,75.399651 50.214714,72.960754 46.281971,71.919487 
M63.581860,18.911488 
	C61.833378,15.567390 58.866524,14.972878 56.278286,17.034172 
	C55.062252,18.002630 54.881695,21.100710 55.324577,22.975611 
	C55.548710,23.924477 58.813786,25.257385 59.631668,24.735655 
	C61.369202,23.627274 62.405022,21.418865 63.581860,18.911488 
M89.269218,99.395691 
	C91.015396,101.980003 93.568863,102.988228 95.877983,100.911903 
	C97.113983,99.800514 97.868813,96.787086 97.229019,95.349174 
	C96.615448,93.970230 93.792969,92.624847 92.165291,92.854286 
	C89.243286,93.266151 87.829071,95.567261 89.269218,99.395691 
M31.757299,61.210106 
	C28.559168,62.034237 27.207432,64.368835 28.479479,67.133347 
	C29.143141,68.575668 31.651075,69.923798 33.310501,69.905540 
	C34.551212,69.891884 36.499866,67.793983 36.841682,66.323845 
	C37.555569,63.253422 35.856403,61.323654 31.757299,61.210106 
M126.331367,97.978149 
	C125.081192,94.776497 122.440384,94.203278 119.996750,95.740868 
	C118.642487,96.592987 117.218201,99.742966 117.783165,100.692902 
	C118.719131,102.266685 121.454475,103.950058 123.021904,103.623024 
	C124.469475,103.320984 125.378700,100.438766 126.331367,97.978149 
M104.042015,16.291513 
	C100.538246,15.512875 97.401100,15.826272 97.305046,20.256969 
	C97.273903,21.693737 98.730637,23.862309 100.050369,24.427977 
	C101.317421,24.971062 104.469772,24.233549 104.718559,23.422373 
	C105.347252,21.372402 104.809364,18.964651 104.042015,16.291513 
M43.707855,97.457977 
	C46.603561,93.084602 46.269703,89.933525 42.624287,89.344643 
	C41.068665,89.093346 38.845562,89.686935 37.775684,90.751083 
	C36.912651,91.609512 36.618496,94.511215 37.320824,95.165131 
	C38.773575,96.517754 41.058083,96.977036 43.707855,97.457977 
M141.949142,31.391899 
	C141.849823,29.285482 142.368958,26.810850 141.417053,25.212055 
	C140.854568,24.267330 137.646942,24.047718 136.221207,24.733503 
	C135.064163,25.290049 133.989243,27.847347 134.274597,29.228783 
	C135.123596,33.338821 137.984741,33.740089 141.949142,31.391899 
M64.581207,98.830887 
	C68.058098,98.643265 69.397369,96.397781 68.721886,93.443810 
	C68.414368,92.098961 66.290497,90.142982 65.161148,90.250854 
	C63.426243,90.416565 60.996452,91.769226 60.372341,93.253502 
	C59.245201,95.934097 60.901089,97.994659 64.581207,98.830887 
M43.437920,34.081112 
	C41.221546,33.508602 38.996750,32.557209 36.794186,32.606155 
	C36.174217,32.619934 34.896145,35.748234 35.237267,37.120525 
	C35.581726,38.506233 37.461849,40.319363 38.843452,40.484123 
	C42.755962,40.950695 44.046539,38.387634 43.437920,34.081112 
M50.093281,46.210289 
	C47.011303,45.464062 43.912579,45.630981 43.745235,49.440006 
	C43.673878,51.064236 45.828465,53.081886 47.431892,54.328728 
	C48.017845,54.784370 50.933655,53.707767 51.060654,53.014160 
	C51.435963,50.964375 50.949333,48.756771 50.093281,46.210289 
M34.127113,82.341087 
	C34.283165,79.187599 32.571575,77.492355 29.666189,78.074280 
	C28.219477,78.364052 26.073288,80.273064 26.072050,81.451515 
	C26.070265,83.153236 27.323942,85.644341 28.768917,86.390137 
	C31.502747,87.801163 33.357292,86.011566 34.127113,82.341087 
z"/>
<path fill="#0F0B09" opacity="1.000000" stroke="none" 
	d="
M57.545891,1.000000 
	C57.976093,1.396180 58.107689,2.017306 57.906200,2.156590 
	C37.893707,15.990733 28.889967,36.824913 22.634720,59.029995 
	C20.098150,68.034393 19.604719,77.641975 18.515234,87.013878 
	C18.024611,91.234299 20.542114,94.118561 24.130695,96.224777 
	C38.131306,104.442032 53.685005,107.869804 69.341644,110.948463 
	C73.022682,111.672279 76.799896,111.906998 80.439217,112.355194 
	C82.521530,103.776970 87.755760,101.546013 93.941666,107.927444 
	C100.098114,114.278481 104.201805,113.105759 110.451210,108.992104 
	C116.775337,104.829262 118.840309,106.028587 121.356758,113.251686 
	C132.479538,109.782387 135.653275,99.298218 141.479675,90.503441 
	C141.325058,89.814125 140.926590,89.647270 140.528137,89.480415 
	C119.147644,94.968239 99.063271,91.292679 80.598289,80.204376 
	C88.748886,81.857910 96.228951,84.215813 104.027695,86.748001 
	C117.053719,90.420776 129.652100,90.353264 142.026413,85.528580 
	C143.435165,84.979294 144.495941,83.537430 145.718063,82.509438 
	C145.412506,82.075783 145.106934,81.642128 144.801376,81.208473 
	C132.791641,86.538223 120.195160,86.760132 107.184799,85.707481 
	C106.074455,85.637863 105.256287,85.783249 104.445053,85.875511 
	C104.451981,85.822388 104.434944,85.716606 104.253693,85.391357 
	C96.958710,81.915886 89.589394,79.234367 82.782021,75.522308 
	C66.295120,66.532028 63.282688,47.818260 76.412857,35.763687 
	C78.441727,35.814651 80.067688,35.793777 82.066696,35.851490 
	C84.334496,35.920914 86.229240,35.911751 88.432640,36.073402 
	C91.036369,36.749424 93.331444,37.254627 95.981262,37.923935 
	C98.219276,38.077393 100.102570,38.066750 102.324890,38.265343 
	C104.733589,38.627346 106.803253,38.780113 109.163231,39.141449 
	C111.006401,39.461411 112.559242,39.572807 114.458046,39.893398 
	C117.439049,40.167862 120.074097,40.233124 122.790649,40.678085 
	C124.596741,41.366375 126.321335,41.674965 128.403778,42.146515 
	C131.732071,42.471275 134.702515,42.633080 138.035721,42.951710 
	C142.256500,43.387291 146.114517,43.666042 150.297928,43.968304 
	C150.501495,41.804142 150.732056,39.353085 150.962616,36.902027 
	C150.743362,22.504162 145.647812,10.473170 133.934647,1.342996 
	C137.361282,1.000000 140.722580,1.000000 144.557541,1.355066 
	C146.895233,4.839992 148.759247,7.969851 150.623276,11.099711 
	C151.309067,10.794302 151.994858,10.488894 152.680649,10.183485 
	C152.100037,8.740849 151.623611,7.244307 150.912155,5.869382 
	C150.044632,4.192850 148.979599,2.618530 148.000000,1.000001 
	C149.714355,1.000000 151.428711,1.000000 153.659012,1.361833 
	C155.835571,5.546975 156.234070,9.240217 154.124222,13.179633 
	C153.262695,14.788239 153.111755,17.093473 153.413315,18.956186 
	C155.024078,28.905912 158.095810,38.777115 158.414124,48.747246 
	C159.234726,74.449234 149.522400,96.726608 133.325287,116.296822 
	C131.163025,118.909370 130.997406,120.703056 132.464767,123.691521 
	C139.936951,138.909668 143.090622,155.054413 142.000000,172.000000 
	C139.958328,172.000000 137.916672,172.000000 135.696472,171.670593 
	C136.879822,154.610794 132.847931,139.160431 124.915634,124.307220 
	C122.372650,125.589264 120.369743,126.599030 118.398857,127.592659 
	C119.292931,130.805786 122.500038,135.048569 116.966171,135.540070 
	C113.263603,135.868927 108.640572,134.044327 105.634949,131.662277 
	C102.726143,129.356964 101.692467,128.379135 98.770561,131.499573 
	C96.516289,133.907013 93.138252,135.954437 89.936737,136.629456 
	C84.352989,137.806778 80.999702,133.320343 80.693893,126.416832 
	C62.947361,122.095009 45.488811,117.843315 27.772463,113.528847 
	C20.130495,127.283508 16.865818,150.740829 20.000000,172.000000 
	C17.958334,172.000000 15.916667,172.000000 13.342993,171.611847 
	C8.655804,152.650925 11.403539,134.847412 19.143570,117.727478 
	C20.644705,114.407166 20.854494,111.881401 19.292835,108.450493 
	C14.784939,98.546829 12.018908,88.089195 11.951500,77.118225 
	C11.777225,48.753662 24.250734,25.924734 43.330700,6.032176 
	C44.914444,4.380980 46.444824,2.678599 48.000000,1.000000 
	C51.030594,1.000000 54.061188,1.000000 57.545891,1.000000 
M124.986450,75.305611 
	C124.979599,74.838112 124.972748,74.370621 125.506866,73.496674 
	C126.116249,72.784668 126.725632,72.072662 127.335014,71.360649 
	C128.058411,73.279190 128.781799,75.197723 129.713959,77.669937 
	C132.910172,76.771561 136.402863,75.789848 139.895554,74.808136 
	C139.997665,74.396240 140.099762,73.984337 140.201874,73.572441 
	C135.156815,73.692703 132.494537,71.166878 133.179916,66.738304 
	C134.068985,60.993584 139.118149,63.036461 143.163879,62.686653 
	C142.743912,58.611881 142.344757,54.738972 142.082031,52.189861 
	C121.653267,48.434845 102.222221,44.889038 82.803474,41.277157 
	C77.404366,40.272919 72.809044,45.158215 74.134392,50.641617 
	C77.876305,66.123131 90.138390,76.977455 106.882256,79.102898 
	C112.101593,79.103531 117.324944,79.217308 122.537727,79.032730 
	C124.015213,78.980415 126.790909,79.111336 124.986450,75.305611 
M21.927370,98.439110 
	C21.702126,98.417946 21.476881,98.396782 21.251637,98.375618 
	C21.312183,98.766273 21.372730,99.156937 21.620756,100.225296 
	C23.340229,102.773247 24.494905,106.534088 26.883020,107.646149 
	C34.649418,111.262672 42.708572,114.480965 50.955444,116.770493 
	C59.219704,119.064850 67.878044,119.902893 76.297218,121.691895 
	C80.390282,122.561630 83.751884,122.366737 86.407967,117.739464 
	C84.397614,116.838669 82.438263,115.270157 80.394966,115.151878 
	C59.751663,113.956978 40.492981,107.918274 21.927370,98.439110 
M87.504585,114.338860 
	C88.606590,113.780602 89.708588,113.222336 91.313148,112.409485 
	C90.504112,116.965805 89.881599,120.471672 89.210136,124.253212 
	C87.737846,123.936661 86.592758,123.690460 83.863167,123.103577 
	C84.621452,126.903160 84.241081,131.411972 85.983299,132.489792 
	C90.672409,135.390717 94.119926,131.594238 97.321129,128.270020 
	C93.070084,123.858017 95.218979,119.693733 98.005974,115.082176 
	C95.292587,112.910477 92.929375,110.536789 90.117424,108.966766 
	C88.655746,108.150650 85.482521,107.956528 84.686691,108.873596 
	C82.715385,111.145233 84.437599,113.093674 87.504585,114.338860 
M111.612877,131.936630 
	C113.316559,132.241455 115.020241,132.546280 116.723930,132.851105 
	C116.968422,132.413086 117.212906,131.975067 117.457397,131.537048 
	C115.404625,129.707214 113.351845,127.877396 111.109589,125.878677 
	C111.511520,123.398956 111.982307,120.494492 112.471596,117.475883 
	C113.493576,117.683151 115.225838,118.115425 115.252449,118.028069 
	C115.987190,115.616341 116.548515,113.151779 117.138626,110.695984 
	C115.367340,110.980011 113.506111,111.016327 111.850067,111.617699 
	C110.193375,112.219307 108.741791,113.385773 107.016144,114.414406 
	C111.412750,119.558708 107.670769,124.213608 106.561424,129.049011 
	C107.038826,129.435699 107.389091,129.796906 107.807220,130.042648 
	C108.805840,130.629532 109.836441,131.161987 111.612877,131.936630 
M102.093292,117.291115 
	C101.359375,117.671150 100.246765,117.870323 99.962677,118.465187 
	C99.117027,120.235909 98.089653,122.194862 98.206894,124.010979 
	C98.251884,124.708000 101.730797,126.150345 102.698372,125.597198 
	C104.199577,124.738983 105.219276,122.575958 105.842896,120.759979 
	C106.658295,118.385529 105.575859,116.908745 102.093292,117.291115 
z"/>
<path fill="#FC9895" opacity="1.000000" stroke="none" 
	d="
M20.454109,172.000000 
	C16.865818,150.740829 20.130495,127.283508 27.772463,113.528847 
	C45.488811,117.843315 62.947361,122.095009 80.693893,126.416832 
	C80.999702,133.320343 84.352989,137.806778 89.936737,136.629456 
	C93.138252,135.954437 96.516289,133.907013 98.770561,131.499573 
	C101.692467,128.379135 102.726143,129.356964 105.634949,131.662277 
	C108.640572,134.044327 113.263603,135.868927 116.966171,135.540070 
	C122.500038,135.048569 119.292931,130.805786 118.398857,127.592659 
	C120.369743,126.599030 122.372650,125.589264 124.915634,124.307220 
	C132.847931,139.160431 136.879822,154.610794 135.258972,171.670593 
	C101.645775,172.000000 68.291542,172.000000 34.509094,171.638733 
	C39.240204,159.564713 42.038910,147.283859 42.634937,134.527405 
	C42.702347,133.084641 41.493366,131.582245 40.876259,130.107498 
	C39.559811,131.209885 37.468964,132.080658 37.058212,133.453949 
	C35.061676,140.129028 33.168663,146.875137 31.913372,153.719803 
	C30.811468,159.728088 30.603054,165.900223 30.000000,172.000000 
	C26.969406,172.000000 23.938814,172.000000 20.454109,172.000000 
M126.563980,141.328583 
	C126.282516,137.270340 123.472900,136.170959 120.405785,137.304550 
	C118.911858,137.856705 117.670799,140.580322 117.442497,142.458054 
	C117.323822,143.434097 119.975342,145.853973 120.817909,145.619354 
	C122.839828,145.056305 124.532242,143.310028 126.563980,141.328583 
M58.898384,129.732086 
	C57.060204,128.827271 55.273533,127.423096 53.362362,127.225983 
	C52.390751,127.125763 50.124092,129.458649 50.313274,130.237045 
	C50.772396,132.126114 51.988232,134.772217 53.507397,135.274780 
	C57.123135,136.470947 58.986847,134.260620 58.898384,129.732086 
M75.285828,137.946976 
	C74.242432,141.688370 75.489273,144.504593 79.413193,144.582809 
	C80.839508,144.611237 82.672592,142.095062 83.612183,140.357178 
	C84.018494,139.605652 82.791473,136.917267 82.028160,136.791016 
	C79.995987,136.454895 77.812683,137.032593 75.285828,137.946976 
M44.116497,162.045258 
	C43.764160,164.607208 43.568192,167.468643 46.894978,167.780258 
	C48.633545,167.943100 51.163193,166.914383 52.142593,165.560715 
	C52.884106,164.535812 52.353062,161.497650 51.301712,160.496277 
	C49.133286,158.430908 46.480556,158.884155 44.116497,162.045258 
M121.735291,163.926788 
	C121.094902,161.783127 120.938164,159.208344 119.589821,157.695770 
	C119.003059,157.037537 115.541359,158.081970 114.208008,159.273590 
	C113.414711,159.982559 113.590187,162.961411 114.438614,164.075867 
	C116.232254,166.431900 118.841133,166.901306 121.735291,163.926788 
M29.099884,154.593201 
	C30.352568,151.935745 30.178890,149.372101 27.153517,148.497604 
	C25.607241,148.050629 22.641396,148.686172 22.027304,149.786713 
	C21.211916,151.247986 21.459082,154.953201 22.332203,155.357727 
	C24.083849,156.169266 26.569494,155.396530 29.099884,154.593201 
M100.087120,154.461655 
	C99.868080,150.970093 97.333534,150.312592 94.844154,151.086075 
	C93.365921,151.545410 91.242981,153.837265 91.450203,154.911713 
	C91.773399,156.587524 93.574532,158.703476 95.207924,159.241867 
	C98.098755,160.194717 99.754013,158.220535 100.087120,154.461655 
M66.954338,156.378601 
	C71.015976,156.769775 72.422974,154.418640 72.006279,150.930649 
	C71.590698,147.452087 68.702736,147.504715 66.260712,148.148422 
	C65.086014,148.458069 63.280247,150.266464 63.449745,151.012100 
	C63.865582,152.841400 65.262291,154.447739 66.954338,156.378601 
M28.984430,124.294312 
	C30.991013,125.161011 32.997593,126.027702 35.004177,126.894394 
	C35.674110,125.043961 36.985821,123.118927 36.782509,121.370010 
	C36.652573,120.252304 34.310013,118.629990 32.911438,118.580116 
	C29.994846,118.476120 28.541912,120.454483 28.984430,124.294312 
z"/>
<path fill="#FDFDFD" opacity="1.000000" stroke="none" 
	d="
M142.468658,172.000000 
	C143.090622,155.054413 139.936951,138.909668 132.464767,123.691521 
	C130.997406,120.703056 131.163025,118.909370 133.325287,116.296822 
	C149.522400,96.726608 159.234726,74.449234 158.414124,48.747246 
	C158.095810,38.777115 155.024078,28.905912 153.413315,18.956186 
	C153.111755,17.093473 153.262695,14.788239 154.124222,13.179633 
	C156.234070,9.240217 155.835571,5.546975 154.087479,1.361833 
	C159.987991,1.000000 165.975983,1.000000 171.939636,1.000000 
	C171.939636,58.000031 171.939636,115.000046 171.939636,172.000000 
	C162.231949,172.000000 152.584641,172.000000 142.468658,172.000000 
z"/>
<path fill="#FCFCFC" opacity="1.000000" stroke="none" 
	d="
M47.531342,1.000000 
	C46.444824,2.678599 44.914444,4.380980 43.330700,6.032176 
	C24.250734,25.924734 11.777225,48.753662 11.951500,77.118225 
	C12.018908,88.089195 14.784939,98.546829 19.292835,108.450493 
	C20.854494,111.881401 20.644705,114.407166 19.143570,117.727478 
	C11.403539,134.847412 8.655804,152.650925 12.905493,171.611847 
	C9.007621,172.000000 5.015242,172.000000 1.017147,172.000000 
	C1.011432,115.116226 1.011432,58.232445 1.011432,1.000000 
	C16.352468,1.000000 31.707575,1.000000 47.531342,1.000000 
z"/>
<path fill="#100A0A" opacity="1.000000" stroke="none" 
	d="
M30.399996,172.000000 
	C30.603054,165.900223 30.811468,159.728088 31.913372,153.719803 
	C33.168663,146.875137 35.061676,140.129028 37.058212,133.453949 
	C37.468964,132.080658 39.559811,131.209885 40.876259,130.107498 
	C41.493366,131.582245 42.702347,133.084641 42.634937,134.527405 
	C42.038910,147.283859 39.240204,159.564713 34.040436,171.638733 
	C32.933331,172.000000 31.866661,172.000000 30.399996,172.000000 
z"/>
<path fill="#1B1814" opacity="1.000000" stroke="none" 
	d="
M93.555832,1.000000 
	C94.469650,7.682900 91.023224,13.648911 85.754601,15.273355 
	C81.415565,16.611185 73.430496,13.635906 71.110382,9.187030 
	C70.010994,7.078924 70.302185,4.245617 69.981689,1.370431 
	C70.750000,1.000000 71.500000,1.000000 72.648018,1.357175 
	C73.689514,4.212602 73.707291,8.303234 75.115059,8.856396 
	C77.562988,9.818270 81.377823,9.416478 83.643578,8.011956 
	C85.257690,7.011380 85.271835,3.429775 86.000000,1.000000 
	C88.370560,1.000000 90.741112,1.000000 93.555832,1.000000 
z"/>
<path fill="#297B00" opacity="1.000000" stroke="none" 
	d="
M85.666672,1.000000 
	C85.271835,3.429775 85.257690,7.011380 83.643578,8.011956 
	C81.377823,9.416478 77.562988,9.818270 75.115059,8.856396 
	C73.707291,8.303234 73.689514,4.212602 73.023018,1.357175 
	C74.066673,1.000000 75.133339,1.000000 76.601059,1.374049 
	C76.390709,3.721511 74.959579,6.366643 78.342583,6.652707 
	C80.060921,6.798007 82.070473,5.057096 83.696205,3.833771 
	C84.214684,3.443632 83.921692,1.975098 84.000000,1.000000 
	C84.444443,1.000000 84.888893,1.000000 85.666672,1.000000 
z"/>
<path fill="#061100" opacity="1.000000" stroke="none" 
	d="
M83.562500,1.000000 
	C83.921692,1.975098 84.214684,3.443632 83.696205,3.833771 
	C82.070473,5.057096 80.060921,6.798007 78.342583,6.652707 
	C74.959579,6.366643 76.390709,3.721511 77.001053,1.374049 
	C79.041664,1.000000 81.083336,1.000000 83.562500,1.000000 
z"/>
<path fill="#2A7E00" opacity="1.000000" stroke="none" 
	d="
M147.625000,1.000001 
	C148.979599,2.618530 150.044632,4.192850 150.912155,5.869382 
	C151.623611,7.244307 152.100037,8.740849 152.680649,10.183485 
	C151.994858,10.488894 151.309067,10.794302 150.623276,11.099711 
	C148.759247,7.969851 146.895233,4.839992 145.015610,1.355066 
	C145.750000,1.000000 146.500000,1.000000 147.625000,1.000001 
z"/>
<path fill="#2B1E1E" opacity="1.000000" stroke="none" 
	d="
M101.985855,38.056107 
	C100.102570,38.066750 98.219276,38.077393 96.194496,37.641148 
	C96.741409,36.378788 97.429817,35.563316 99.238953,33.420269 
	C94.109787,33.235165 90.315948,33.098251 86.189743,32.979973 
	C85.192802,32.990471 84.528229,32.982330 83.850693,32.558990 
	C80.293869,31.881336 76.750015,31.618887 73.072220,31.045174 
	C72.620041,30.135624 72.301811,29.537336 71.983582,28.939049 
	C79.229675,26.080490 86.192688,28.759970 93.279747,29.895142 
	C109.220551,32.448460 125.188667,34.837379 141.167877,37.139065 
	C144.091446,37.560181 147.120087,37.251827 150.531433,37.091114 
	C150.732056,39.353085 150.501495,41.804142 150.297928,43.968304 
	C146.114517,43.666042 142.256500,43.387291 138.208084,42.636406 
	C137.955154,41.435658 137.986191,40.094616 137.816299,40.068661 
	C134.260803,39.525440 130.682571,39.130978 126.536751,38.639431 
	C127.279587,40.285458 127.662758,41.134510 128.045929,41.983559 
	C126.321335,41.674965 124.596741,41.366375 122.949783,40.326351 
	C120.107834,38.713322 117.188263,37.831726 114.268677,36.950134 
	C114.216484,37.861488 114.164284,38.772846 114.112091,39.684200 
	C112.559242,39.572807 111.006401,39.461411 109.376991,38.817299 
	C109.194946,37.442360 109.241966,35.927174 108.960106,35.863304 
	C106.475685,35.300327 103.932770,34.995434 100.834373,34.527718 
	C101.393562,36.241180 101.689713,37.148640 101.985855,38.056107 
z"/>
<path fill="#E30000" opacity="1.000000" stroke="none" 
	d="
M76.009933,35.691849 
	C63.282688,47.818260 66.295120,66.532028 82.782021,75.522308 
	C89.589394,79.234367 96.958710,81.915886 104.048065,85.586540 
	C103.918800,86.262558 103.813911,86.418137 103.709023,86.573715 
	C96.228951,84.215813 88.748886,81.857910 80.618988,79.647736 
	C79.516701,79.715988 79.064240,79.636528 78.555183,78.965202 
	C76.123428,76.946198 73.748268,75.519058 71.373100,74.091919 
	C71.373100,74.091919 71.470360,74.063904 71.597488,73.728241 
	C70.780647,71.843513 70.101952,70.025513 68.849060,68.789597 
	C61.453747,61.494457 62.335220,52.716816 64.113983,43.746376 
	C64.337898,42.617134 64.939186,41.553108 65.094879,40.421604 
	C65.812164,35.208847 68.906647,32.722404 74.103485,32.600876 
	C74.809998,33.756214 75.409966,34.724030 76.009933,35.691849 
z"/>
<path fill="#290C0C" opacity="1.000000" stroke="none" 
	d="
M121.491623,11.491507 
	C124.280754,7.113753 127.782799,5.136819 132.589432,6.878601 
	C136.899887,8.440582 139.189285,11.697206 139.433533,16.272930 
	C139.608826,19.556654 138.090958,21.832373 134.725586,22.074341 
	C131.612808,22.298147 128.408417,22.301073 125.337669,21.813608 
	C120.534485,21.051128 118.825287,16.481430 121.491623,11.491507 
M131.206573,9.796635 
	C127.645111,9.937981 122.891220,13.281338 123.396118,15.663989 
	C124.286690,19.866640 127.879463,19.197987 130.968552,19.204708 
	C131.133118,19.205067 131.310135,19.241011 131.460312,19.193644 
	C132.950256,18.723671 135.603470,18.399347 135.695251,17.728453 
	C135.934097,15.982339 135.260941,13.991169 134.526825,12.280017 
	C134.123962,11.340971 132.861801,10.770576 131.206573,9.796635 
z"/>
<path fill="#290A0A" opacity="1.000000" stroke="none" 
	d="
M73.996933,32.413353 
	C68.906647,32.722404 65.812164,35.208847 65.094879,40.421604 
	C64.939186,41.553108 64.337898,42.617134 64.113983,43.746376 
	C62.335220,52.716816 61.453747,61.494457 68.849060,68.789597 
	C70.101952,70.025513 70.780647,71.843513 71.603134,73.778534 
	C70.888023,74.296921 69.970940,74.745468 69.747139,74.516479 
	C58.227245,62.729313 57.083874,51.875584 63.953987,35.919678 
	C65.178360,33.076050 68.777161,31.254772 71.631577,28.950237 
	C72.301811,29.537336 72.620041,30.135624 73.280975,31.301125 
	C73.748093,32.050011 73.872513,32.231682 73.996933,32.413353 
z"/>
<path fill="#FFC70F" opacity="1.000000" stroke="none" 
	d="
M46.681885,71.962776 
	C50.214714,72.960754 51.673367,75.399651 50.108356,78.005028 
	C49.160797,79.582504 46.042336,80.982300 44.287464,80.613670 
	C42.711933,80.282722 40.671062,77.464287 40.603157,75.676048 
	C40.476929,72.351875 43.305763,71.590797 46.681885,71.962776 
z"/>
<path fill="#FFC612" opacity="1.000000" stroke="none" 
	d="
M63.655182,19.286446 
	C62.405022,21.418865 61.369202,23.627274 59.631668,24.735655 
	C58.813786,25.257385 55.548710,23.924477 55.324577,22.975611 
	C54.881695,21.100710 55.062252,18.002630 56.278286,17.034172 
	C58.866524,14.972878 61.833378,15.567390 63.655182,19.286446 
z"/>
<path fill="#FFC611" opacity="1.000000" stroke="none" 
	d="
M89.118858,99.067085 
	C87.829071,95.567261 89.243286,93.266151 92.165291,92.854286 
	C93.792969,92.624847 96.615448,93.970230 97.229019,95.349174 
	C97.868813,96.787086 97.113983,99.800514 95.877983,100.911903 
	C93.568863,102.988228 91.015396,101.980003 89.118858,99.067085 
z"/>
<path fill="#FFC70F" opacity="1.000000" stroke="none" 
	d="
M32.146614,61.189865 
	C35.856403,61.323654 37.555569,63.253422 36.841682,66.323845 
	C36.499866,67.793983 34.551212,69.891884 33.310501,69.905540 
	C31.651075,69.923798 29.143141,68.575668 28.479479,67.133347 
	C27.207432,64.368835 28.559168,62.034237 32.146614,61.189865 
z"/>
<path fill="#FFC70E" opacity="1.000000" stroke="none" 
	d="
M126.428200,98.335541 
	C125.378700,100.438766 124.469475,103.320984 123.021904,103.623024 
	C121.454475,103.950058 118.719131,102.266685 117.783165,100.692902 
	C117.218201,99.742966 118.642487,96.592987 119.996750,95.740868 
	C122.440384,94.203278 125.081192,94.776497 126.428200,98.335541 
z"/>
<path fill="#FFC611" opacity="1.000000" stroke="none" 
	d="
M104.390434,16.495876 
	C104.809364,18.964651 105.347252,21.372402 104.718559,23.422373 
	C104.469772,24.233549 101.317421,24.971062 100.050369,24.427977 
	C98.730637,23.862309 97.273903,21.693737 97.305046,20.256969 
	C97.401100,15.826272 100.538246,15.512875 104.390434,16.495876 
z"/>
<path fill="#FFC70E" opacity="1.000000" stroke="none" 
	d="
M43.354187,97.630852 
	C41.058083,96.977036 38.773575,96.517754 37.320824,95.165131 
	C36.618496,94.511215 36.912651,91.609512 37.775684,90.751083 
	C38.845562,89.686935 41.068665,89.093346 42.624287,89.344643 
	C46.269703,89.933525 46.603561,93.084602 43.354187,97.630852 
z"/>
<path fill="#FFC70F" opacity="1.000000" stroke="none" 
	d="
M141.677612,31.676945 
	C137.984741,33.740089 135.123596,33.338821 134.274597,29.228783 
	C133.989243,27.847347 135.064163,25.290049 136.221207,24.733503 
	C137.646942,24.047718 140.854568,24.267330 141.417053,25.212055 
	C142.368958,26.810850 141.849823,29.285482 141.677612,31.676945 
z"/>
<path fill="#FFC610" opacity="1.000000" stroke="none" 
	d="
M64.200027,98.780128 
	C60.901089,97.994659 59.245201,95.934097 60.372341,93.253502 
	C60.996452,91.769226 63.426243,90.416565 65.161148,90.250854 
	C66.290497,90.142982 68.414368,92.098961 68.721886,93.443810 
	C69.397369,96.397781 68.058098,98.643265 64.200027,98.780128 
z"/>
<path fill="#FFC70E" opacity="1.000000" stroke="none" 
	d="
M43.588692,34.442451 
	C44.046539,38.387634 42.755962,40.950695 38.843452,40.484123 
	C37.461849,40.319363 35.581726,38.506233 35.237267,37.120525 
	C34.896145,35.748234 36.174217,32.619934 36.794186,32.606155 
	C38.996750,32.557209 41.221546,33.508602 43.588692,34.442451 
z"/>
<path fill="#FFC80B" opacity="1.000000" stroke="none" 
	d="
M50.446590,46.410599 
	C50.949333,48.756771 51.435963,50.964375 51.060654,53.014160 
	C50.933655,53.707767 48.017845,54.784370 47.431892,54.328728 
	C45.828465,53.081886 43.673878,51.064236 43.745235,49.440006 
	C43.912579,45.630981 47.011303,45.464062 50.446590,46.410599 
z"/>
<path fill="#FFC80C" opacity="1.000000" stroke="none" 
	d="
M34.089153,82.745110 
	C33.357292,86.011566 31.502747,87.801163 28.768917,86.390137 
	C27.323942,85.644341 26.070265,83.153236 26.072050,81.451515 
	C26.073288,80.273064 28.219477,78.364052 29.666189,78.074280 
	C32.571575,77.492355 34.283165,79.187599 34.089153,82.745110 
z"/>
<path fill="#0F0B09" opacity="1.000000" stroke="none" 
	d="
M71.049789,74.430359 
	C73.748268,75.519058 76.123428,76.946198 78.502045,78.769264 
	C77.593498,79.408958 76.270012,80.158257 75.840836,79.808907 
	C73.992943,78.304680 72.407501,76.478027 71.049789,74.430359 
z"/>
<path fill="#F6C593" opacity="1.000000" stroke="none" 
	d="
M105.974632,78.826393 
	C90.138390,76.977455 77.876305,66.123131 74.134392,50.641617 
	C72.809044,45.158215 77.404366,40.272919 82.803474,41.277157 
	C102.222221,44.889038 121.653267,48.434845 142.082031,52.189861 
	C142.344757,54.738972 142.743912,58.611881 143.163879,62.686653 
	C139.118149,63.036461 134.068985,60.993584 133.179916,66.738304 
	C132.494537,71.166878 135.156815,73.692703 140.201874,73.572441 
	C140.099762,73.984337 139.997665,74.396240 139.895554,74.808136 
	C136.402863,75.789848 132.910172,76.771561 129.713959,77.669937 
	C128.781799,75.197723 128.058411,73.279190 127.335014,71.360649 
	C126.725632,72.072662 126.116249,72.784668 124.781311,73.592216 
	C118.679955,73.782845 113.304146,73.877930 107.572418,73.983505 
	C103.101852,74.653763 106.286957,77.189476 105.974632,78.826393 
M93.188873,61.763680 
	C90.304543,62.393452 88.463676,64.247696 89.472275,67.059570 
	C90.185028,69.046638 91.977234,71.434265 93.820885,72.052452 
	C96.977539,73.110901 99.741516,71.593735 100.284088,67.840805 
	C100.803696,64.246742 98.337166,61.927528 93.188873,61.763680 
z"/>
<path fill="#F1F1F1" opacity="1.000000" stroke="none" 
	d="
M22.017712,98.980324 
	C40.492981,107.918274 59.751663,113.956978 80.394966,115.151878 
	C82.438263,115.270157 84.397614,116.838669 86.407967,117.739464 
	C83.751884,122.366737 80.390282,122.561630 76.297218,121.691895 
	C67.878044,119.902893 59.219704,119.064850 50.955444,116.770493 
	C42.708572,114.480965 34.649418,111.262672 26.883020,107.646149 
	C24.494905,106.534088 23.340229,102.773247 21.679741,99.751450 
	C21.738728,99.277596 22.017712,98.980324 22.017712,98.980324 
z"/>
<path fill="#EABB00" opacity="1.000000" stroke="none" 
	d="
M87.141968,114.328468 
	C84.437599,113.093674 82.715385,111.145233 84.686691,108.873596 
	C85.482521,107.956528 88.655746,108.150650 90.117424,108.966766 
	C92.929375,110.536789 95.292587,112.910477 98.005974,115.082176 
	C95.218979,119.693733 93.070084,123.858017 97.321129,128.270020 
	C94.119926,131.594238 90.672409,135.390717 85.983299,132.489792 
	C84.241081,131.411972 84.621452,126.903160 83.863167,123.103577 
	C86.592758,123.690460 87.737846,123.936661 89.210136,124.253212 
	C89.881599,120.471672 90.504112,116.965805 91.313148,112.409485 
	C89.708588,113.222336 88.606590,113.780602 87.141968,114.328468 
z"/>
<path fill="#E1B400" opacity="1.000000" stroke="none" 
	d="
M111.233505,131.826523 
	C109.836441,131.161987 108.805840,130.629532 107.807220,130.042648 
	C107.389091,129.796906 107.038826,129.435699 106.561424,129.049011 
	C107.670769,124.213608 111.412750,119.558708 107.016144,114.414406 
	C108.741791,113.385773 110.193375,112.219307 111.850067,111.617699 
	C113.506111,111.016327 115.367340,110.980011 117.138626,110.695984 
	C116.548515,113.151779 115.987190,115.616341 115.252449,118.028069 
	C115.225838,118.115425 113.493576,117.683151 112.471596,117.475883 
	C111.982307,120.494492 111.511520,123.398956 111.109589,125.878677 
	C113.351845,127.877396 115.404625,129.707214 117.457397,131.537048 
	C117.212906,131.975067 116.968422,132.413086 116.723930,132.851105 
	C115.020241,132.546280 113.316559,132.241455 111.233505,131.826523 
z"/>
<path fill="#D00000" opacity="1.000000" stroke="none" 
	d="
M107.476982,85.922485 
	C120.195160,86.760132 132.791641,86.538223 144.801376,81.208473 
	C145.106934,81.642128 145.412506,82.075783 145.718063,82.509438 
	C144.495941,83.537430 143.435165,84.979294 142.026413,85.528580 
	C129.652100,90.353264 117.053719,90.420776 104.027695,86.748001 
	C103.813911,86.418137 103.918800,86.262558 104.229317,85.911789 
	C104.434944,85.716606 104.451981,85.822388 104.950150,85.877075 
	C106.124542,85.928680 106.800758,85.925583 107.476982,85.922485 
z"/>
<path fill="#DDB184" opacity="1.000000" stroke="none" 
	d="
M106.428444,78.964645 
	C106.286957,77.189476 103.101852,74.653763 107.602219,74.432167 
	C108.883919,75.300743 109.774246,76.087631 110.676796,76.101906 
	C115.448311,76.177399 120.222916,76.058411 124.996445,76.006851 
	C126.790909,79.111336 124.015213,78.980415 122.537727,79.032730 
	C117.324944,79.217308 112.101593,79.103531 106.428444,78.964645 
z"/>
<path fill="#E9BB00" opacity="1.000000" stroke="none" 
	d="
M102.469307,117.199539 
	C105.575859,116.908745 106.658295,118.385529 105.842896,120.759979 
	C105.219276,122.575958 104.199577,124.738983 102.698372,125.597198 
	C101.730797,126.150345 98.251884,124.708000 98.206894,124.010979 
	C98.089653,122.194862 99.117027,120.235909 99.962677,118.465187 
	C100.246765,117.870323 101.359375,117.671150 102.469307,117.199539 
z"/>
<path fill="#D8D8D8" opacity="1.000000" stroke="none" 
	d="
M86.522110,32.961338 
	C90.315948,33.098251 94.109787,33.235165 99.238953,33.420269 
	C97.429817,35.563316 96.741409,36.378788 95.839767,37.477043 
	C93.331444,37.254627 91.036369,36.749424 88.349350,35.745731 
	C87.478981,34.485275 87.000542,33.723305 86.522110,32.961338 
z"/>
<path fill="#CDCDCD" opacity="1.000000" stroke="none" 
	d="
M74.103485,32.600876 
	C73.872513,32.231682 73.748093,32.050011 73.414917,31.612389 
	C76.750015,31.618887 80.293869,31.881336 83.614616,32.740719 
	C82.825554,34.149403 82.259598,34.961151 81.693642,35.772903 
	C80.067688,35.793777 78.441727,35.814651 76.412857,35.763687 
	C75.409966,34.724030 74.809998,33.756214 74.103485,32.600876 
z"/>
<path fill="#C9C9C9" opacity="1.000000" stroke="none" 
	d="
M128.403778,42.146515 
	C127.662758,41.134510 127.279587,40.285458 126.536751,38.639431 
	C130.682571,39.130978 134.260803,39.525440 137.816299,40.068661 
	C137.986191,40.094616 137.955154,41.435658 137.845322,42.479576 
	C134.702515,42.633080 131.732071,42.471275 128.403778,42.146515 
z"/>
<path fill="#3E3225" opacity="1.000000" stroke="none" 
	d="
M124.991447,75.656235 
	C120.222916,76.058411 115.448311,76.177399 110.676796,76.101906 
	C109.774246,76.087631 108.883919,75.300743 107.958145,74.421684 
	C113.304146,73.877930 118.679955,73.782845 124.510826,73.795441 
	C124.972748,74.370621 124.979599,74.838112 124.991447,75.656235 
z"/>
<path fill="#D1D1D1" opacity="1.000000" stroke="none" 
	d="
M114.458038,39.893398 
	C114.164284,38.772846 114.216484,37.861488 114.268677,36.950134 
	C117.188263,37.831726 120.107834,38.713322 122.868279,39.946655 
	C120.074097,40.233124 117.439049,40.167862 114.458038,39.893398 
z"/>
<path fill="#DADADA" opacity="1.000000" stroke="none" 
	d="
M102.324890,38.265343 
	C101.689713,37.148640 101.393562,36.241180 100.834373,34.527718 
	C103.932770,34.995434 106.475685,35.300327 108.960106,35.863304 
	C109.241966,35.927174 109.194946,37.442360 109.086670,38.608727 
	C106.803253,38.780113 104.733589,38.627346 102.324890,38.265343 
z"/>
<path fill="#422D2D" opacity="1.000000" stroke="none" 
	d="
M82.066696,35.851490 
	C82.259598,34.961151 82.825554,34.149403 83.627579,33.155922 
	C84.528229,32.982330 85.192802,32.990471 86.189743,32.979973 
	C87.000542,33.723305 87.478981,34.485275 88.040703,35.574913 
	C86.229240,35.911751 84.334496,35.920914 82.066696,35.851490 
z"/>
<path fill="#E30000" opacity="1.000000" stroke="none" 
	d="
M107.184799,85.707481 
	C106.800758,85.925583 106.124542,85.928680 104.943222,85.930206 
	C105.256287,85.783249 106.074455,85.637863 107.184799,85.707481 
z"/>
<path fill="#F1F1F1" opacity="1.000000" stroke="none" 
	d="
M21.586002,99.412598 
	C21.372730,99.156937 21.312183,98.766273 21.251637,98.375618 
	C21.476881,98.396782 21.702126,98.417946 21.972542,98.709717 
	C22.017712,98.980324 21.738728,99.277596 21.586002,99.412598 
z"/>
<path fill="#FA9694" opacity="1.000000" stroke="none" 
	d="
M140.726120,89.697342 
	C140.926590,89.647270 141.325058,89.814125 141.530121,90.156662 
	C141.199203,90.192986 141.061661,90.053627 140.726120,89.697342 
z"/>
<path fill="#FFC80C" opacity="1.000000" stroke="none" 
	d="
M126.460800,141.684906 
	C124.532242,143.310028 122.839828,145.056305 120.817909,145.619354 
	C119.975342,145.853973 117.323822,143.434097 117.442497,142.458054 
	C117.670799,140.580322 118.911858,137.856705 120.405785,137.304550 
	C123.472900,136.170959 126.282516,137.270340 126.460800,141.684906 
z"/>
<path fill="#FFC80B" opacity="1.000000" stroke="none" 
	d="
M58.925838,130.129257 
	C58.986847,134.260620 57.123135,136.470947 53.507397,135.274780 
	C51.988232,134.772217 50.772396,132.126114 50.313274,130.237045 
	C50.124092,129.458649 52.390751,127.125763 53.362362,127.225983 
	C55.273533,127.423096 57.060204,128.827271 58.925838,130.129257 
z"/>
<path fill="#FFC70E" opacity="1.000000" stroke="none" 
	d="
M75.487648,137.596954 
	C77.812683,137.032593 79.995987,136.454895 82.028160,136.791016 
	C82.791473,136.917267 84.018494,139.605652 83.612183,140.357178 
	C82.672592,142.095062 80.839508,144.611237 79.413193,144.582809 
	C75.489273,144.504593 74.242432,141.688370 75.487648,137.596954 
z"/>
<path fill="#FFC80C" opacity="1.000000" stroke="none" 
	d="
M44.279739,161.684113 
	C46.480556,158.884155 49.133286,158.430908 51.301712,160.496277 
	C52.353062,161.497650 52.884106,164.535812 52.142593,165.560715 
	C51.163193,166.914383 48.633545,167.943100 46.894978,167.780258 
	C43.568192,167.468643 43.764160,164.607208 44.279739,161.684113 
z"/>
<path fill="#FFC70E" opacity="1.000000" stroke="none" 
	d="
M121.541054,164.283218 
	C118.841133,166.901306 116.232254,166.431900 114.438614,164.075867 
	C113.590187,162.961411 113.414711,159.982559 114.208008,159.273590 
	C115.541359,158.081970 119.003059,157.037537 119.589821,157.695770 
	C120.938164,159.208344 121.094902,161.783127 121.541054,164.283218 
z"/>
<path fill="#FFC80D" opacity="1.000000" stroke="none" 
	d="
M28.926031,154.935455 
	C26.569494,155.396530 24.083849,156.169266 22.332203,155.357727 
	C21.459082,154.953201 21.211916,151.247986 22.027304,149.786713 
	C22.641396,148.686172 25.607241,148.050629 27.153517,148.497604 
	C30.178890,149.372101 30.352568,151.935745 28.926031,154.935455 
z"/>
<path fill="#FFC80C" opacity="1.000000" stroke="none" 
	d="
M100.083633,154.867371 
	C99.754013,158.220535 98.098755,160.194717 95.207924,159.241867 
	C93.574532,158.703476 91.773399,156.587524 91.450203,154.911713 
	C91.242981,153.837265 93.365921,151.545410 94.844154,151.086075 
	C97.333534,150.312592 99.868080,150.970093 100.083633,154.867371 
z"/>
<path fill="#FFC80B" opacity="1.000000" stroke="none" 
	d="
M66.609360,156.261185 
	C65.262291,154.447739 63.865582,152.841400 63.449745,151.012100 
	C63.280247,150.266464 65.086014,148.458069 66.260712,148.148422 
	C68.702736,147.504715 71.590698,147.452087 72.006279,150.930649 
	C72.422974,154.418640 71.015976,156.769775 66.609360,156.261185 
z"/>
<path fill="#FFC90A" opacity="1.000000" stroke="none" 
	d="
M28.936203,123.890411 
	C28.541912,120.454483 29.994846,118.476120 32.911438,118.580116 
	C34.310013,118.629990 36.652573,120.252304 36.782509,121.370010 
	C36.985821,123.118927 35.674110,125.043961 35.004177,126.894394 
	C32.997593,126.027702 30.991013,125.161011 28.936203,123.890411 
z"/>
<path fill="#F10000" opacity="1.000000" stroke="none" 
	d="
M131.596832,9.915297 
	C132.861801,10.770576 134.123962,11.340971 134.526825,12.280017 
	C135.260941,13.991169 135.934097,15.982339 135.695251,17.728453 
	C135.603470,18.399347 132.950256,18.723671 131.460312,19.193644 
	C131.310135,19.241011 131.133118,19.205067 130.968552,19.204708 
	C127.879463,19.197987 124.286690,19.866640 123.396118,15.663989 
	C122.891220,13.281338 127.645111,9.937981 131.596832,9.915297 
z"/>
<path fill="#100D0A" opacity="1.000000" stroke="none" 
	d="
M93.557930,61.699043 
	C98.337166,61.927528 100.803696,64.246742 100.284088,67.840805 
	C99.741516,71.593735 96.977539,73.110901 93.820885,72.052452 
	C91.977234,71.434265 90.185028,69.046638 89.472275,67.059570 
	C88.463676,64.247696 90.304543,62.393452 93.557930,61.699043 
z"/>
</svg>